<?xml version="1.0" encoding="UTF-8"?>
<svg width="275px" height="82px" viewBox="0 0 275 82" version="1.1" xmlns="http://www.w3.org/2000/svg" xmlns:xlink="http://www.w3.org/1999/xlink">
    <!-- Generator: Sketch 52.2 (67145) - http://www.bohemiancoding.com/sketch -->
    <title>logo</title>
    <desc>Created with Sketch.</desc>
    <g id="Page-1" stroke="none" stroke-width="1" fill="none" fill-rule="evenodd">
        <g id="logo" transform="translate(0.000000, 1.000000)">
            <g id="SvgjsG1446" transform="translate(0.002468, 0.000034)" stroke-linecap="round" stroke-linejoin="round">
                <rect id="Rectangle" stroke="#000000" stroke-width="1.99991129" transform="translate(35.996709, 34.999137) rotate(-135.000000) translate(-35.996709, -34.999137) " x="11.2478069" y="10.2517345" width="49.4978043" height="49.4948045"></rect>
                <path d="M35.9977484,59.392935 L60.3909003,35.001783 L35.9987484,10.6076312 L11.6075964,35.0007831 L35.9977484,59.392935 Z M49.7832691,35.0007831 L35.9977484,48.7853038 L22.2132277,35.0007831 L35.9987484,21.2142624 L49.7832691,35.0007831 Z" id="Shape" stroke="#512DA8" stroke-width="1.99993047"></path>
                <rect id="Rectangle" stroke="#000000" stroke-width="2.00005271" transform="translate(36.001002, 35.001665) rotate(-45.004051) translate(-36.001002, -35.001665) " x="33.7529429" y="32.7531059" width="4.49611849" height="4.49711851"></rect>
                <polygon id="Path" stroke="#000000" stroke-width="1.99993047" points="35.9977484 69.9975663 5.9997914 40.0026092 1.00196516 44.9984355 35.9977484 79.9972186 70.9975315 44.9984355 65.9977054 39.9986093"></polygon>
            </g>
            <g id="SvgjsG1447" transform="translate(86.905200, 8.048633)" fill="#000000" fill-rule="nonzero">
                <path d="M4.09731242,10.4071735 C3.85147368,9.50576482 21.7157558,4.50704366 28.7631332,3.27784994 C33.1882306,2.45838745 37.0397043,2.04865621 40.3995005,1.96670996 C47.2010391,1.80281746 51.8719752,2.95006494 54.3303627,5.49039864 C57.1165351,8.19462484 56.1331802,11.6363673 55.3137177,11.3905285 C54.5762014,11.1446898 55.2317714,8.60435608 53.1831152,6.55569987 C51.0525128,4.42509741 46.6274153,3.44174243 40.3995005,3.60563493 C38.0230593,3.68758118 35.3188331,3.93341992 32.3687681,4.34315117 C31.7951444,9.34187232 31.1395744,21.7977021 31.1395744,29.9923269 C31.1395744,44.0870816 33.5160156,46.2176841 32.7784994,46.7913078 C32.2868219,47.2010391 29.5006494,44.9065441 29.5006494,30.0742732 C29.5006494,28.4353482 29.5006494,26.6325307 29.5825957,24.8297133 C29.8284344,17.0448197 30.5659507,7.12932361 30.7298432,4.58898991 L28.5992407,4.9167749 C21.7157558,6.14596863 4.34315117,11.0627435 4.09731242,10.4071735 Z M49.4135878,37.6952743 C48.6760716,37.6952743 47.6927166,37.3674893 47.1190928,35.8105106 C46.8732541,34.9910481 46.7093616,33.9257468 46.6274153,32.9423919 C46.6274153,32.5326606 46.5454691,32.0409831 46.5454691,31.6312519 C46.2996304,31.9590369 46.0537916,32.5326606 45.8079529,32.9423919 C45.0704366,34.4174243 44.0051354,36.5480268 41.9564792,36.5480268 C41.6286942,36.5480268 40.891178,36.3841343 40.4814467,35.4007793 C40.3175542,34.9091018 40.235608,34.2535318 40.235608,33.5160156 C40.235608,30.4020582 41.7925867,24.5838745 44.8245979,24.5838745 C47.2010391,24.5838745 47.8566091,27.4519932 47.1190928,27.697832 C46.5454691,27.9436707 46.2996304,26.2227995 44.8245979,26.2227995 C44.2509741,26.2227995 43.5954042,27.042262 43.0217804,28.2714557 C42.4481567,29.5006494 42.0384254,31.0576281 41.9564792,32.4507144 C41.7925867,33.9257468 41.9564792,34.6632631 42.0384254,34.9091018 C43.0217804,34.7452093 43.7592966,33.4340694 44.3329204,32.2048756 C44.9884904,30.8937356 45.6440604,29.7464882 46.7093616,29.7464882 C47.1190928,29.7464882 47.7746628,29.9103807 48.1024478,31.0576281 C48.1843941,31.5493056 48.2663403,32.1229294 48.2663403,32.7784994 C48.3482866,33.6799081 48.4302328,34.6632631 48.6760716,35.3188331 C48.9219103,36.0563493 49.2496953,36.0563493 49.4135878,36.0563493 C49.6594265,36.0563493 50.3969428,35.5646718 51.2164053,33.7618543 C51.8719752,32.4507144 52.2817065,31.0576281 52.2817065,31.0576281 C52.2817065,31.0576281 53.756739,31.7951444 53.6747927,32.2048756 L52.6914377,34.4993706 C51.6261365,36.629973 50.5608353,37.6952743 49.4135878,37.6952743 Z M58.6735139,31.1395744 C58.6735139,31.1395744 60.2304926,31.6312519 60.1485463,31.9590369 C59.9846538,32.5326606 59.7388151,33.5160156 59.3290838,34.4993706 C58.4276751,36.7119193 57.1984814,37.8591668 55.8053952,37.8591668 C55.3956639,37.8591668 54.8220402,37.6952743 54.3303627,37.1216505 C53.2650615,36.1382955 52.6094915,33.7618543 52.0358677,30.0742732 C51.7080827,27.2061545 51.462244,23.5185733 51.2983515,19.1754221 C51.134459,11.7183135 51.2983515,4.58898991 51.3802978,4.58898991 C51.6261365,4.26120492 52.773384,4.34315117 53.0192227,4.67093616 C53.0192227,4.67093616 52.773384,11.7183135 52.9372765,19.0934759 C53.2650615,31.8770906 54.6581477,35.1549406 55.4776102,36.0563493 C55.5595564,36.1382955 55.7234489,36.2202418 55.8053952,36.2202418 C57.1165351,36.2202418 58.2637826,33.1882306 58.6735139,31.1395744 Z M59.5749226,21.4699171 C59.5749226,21.4699171 58.0998901,21.7977021 57.7721051,21.1421321 C57.3623739,20.4865621 57.5262664,17.9462284 57.5262664,17.9462284 C57.9359976,17.5364972 59.3290838,17.6184434 59.6568688,17.9462284 C59.8207613,18.1920671 59.5749226,21.4699171 59.5749226,21.4699171 Z M61.8694175,37.0397043 C60.2304926,37.0397043 59.1651914,34.9910481 58.5096214,30.5659507 C58.0179439,27.6158857 57.8540514,24.747767 57.9359976,24.6658208 C58.1818364,24.3380358 59.2471376,24.3380358 59.5749226,24.5838745 C59.5749226,24.6658208 59.6568688,27.5339395 60.0666001,30.3201119 C60.8041163,35.3188331 61.8694175,35.4007793 61.8694175,35.4007793 C62.7708263,35.4007793 64.00002,32.9423919 64.5736437,31.1395744 C64.5736437,31.1395744 65.1472675,31.3034669 65.5569987,31.5493056 C66.2125687,31.7951444 65.5569987,33.1882306 65.0653212,34.1715856 C64.1639125,36.0563493 63.016665,37.0397043 61.8694175,37.0397043 Z M73.5057848,37.6952743 C72.7682686,37.6952743 71.7849136,37.3674893 71.2112899,35.8105106 C70.9654511,34.9910481 70.8015586,33.9257468 70.7196124,32.9423919 C70.7196124,32.5326606 70.6376661,32.0409831 70.6376661,31.6312519 C70.3918274,31.9590369 70.1459886,32.5326606 69.9001499,32.9423919 C69.1626337,34.4174243 68.0973324,36.5480268 66.0486762,36.5480268 C65.7208912,36.5480268 64.983375,36.3841343 64.5736437,35.4007793 C64.4097512,34.9091018 64.327805,34.2535318 64.327805,33.5160156 C64.327805,30.4020582 65.8847837,24.5838745 68.9167949,24.5838745 C71.2932361,24.5838745 71.9488061,27.4519932 71.2112899,27.697832 C70.6376661,27.9436707 70.3918274,26.2227995 68.9167949,26.2227995 C68.3431712,26.2227995 67.6876012,27.042262 67.1139774,28.2714557 C66.5403537,29.5006494 66.1306225,31.0576281 66.0486762,32.4507144 C65.8847837,33.9257468 66.0486762,34.6632631 66.1306225,34.9091018 C67.1139774,34.7452093 67.8514937,33.4340694 68.4251174,32.2048756 C69.0806874,30.8937356 69.7362574,29.7464882 70.8015586,29.7464882 C71.2112899,29.7464882 71.8668599,29.9103807 72.1946448,31.0576281 C72.2765911,31.5493056 72.3585373,32.1229294 72.3585373,32.7784994 C72.4404836,33.6799081 72.5224298,34.6632631 72.7682686,35.3188331 C73.0141073,36.0563493 73.3418923,36.0563493 73.5057848,36.0563493 C73.7516236,36.0563493 74.4891398,35.5646718 75.3086023,33.7618543 C75.9641723,32.4507144 76.3739035,31.0576281 76.3739035,31.0576281 C76.3739035,31.0576281 77.848936,31.7951444 77.7669897,32.2048756 L76.7836348,34.4993706 C75.7183335,36.629973 74.6530323,37.6952743 73.5057848,37.6952743 Z M77.1114198,22.7810571 C76.865581,22.6991108 76.6197423,22.5352183 76.4558498,22.5352183 C76.0461185,22.2893796 77.1114198,20.8962933 76.9475273,18.4379059 C76.9475273,18.1101209 78.5864522,18.0281746 78.5864522,18.3559596 C78.7503447,21.3060246 77.521151,22.9449496 77.1114198,22.7810571 Z M88.8297333,31.7131981 C88.8297333,31.7951444 86.2893996,36.0563493 84.8143671,38.924468 C85.2240983,41.3828554 84.5685284,42.7759417 84.0768509,43.4315117 C83.5851734,44.0051354 83.0115496,44.3329204 82.3559796,44.3329204 C82.0281947,44.3329204 81.7004097,44.1690279 81.5365172,43.9231891 C81.2906784,43.4315117 81.2906784,42.8578879 82.1920872,40.7272855 L83.1754421,38.6786292 L83.0115496,38.268898 C81.7004097,32.8604456 80.9628934,28.5992407 80.8809472,25.6491758 L80.8809472,25.2394445 C80.8809472,23.1907883 81.3726247,20.4865621 83.3393346,20.4865621 C85.7977221,20.4865621 85.9616146,25.1574983 84.8963134,25.1574983 C84.3226896,25.1574983 84.5685284,22.2074333 83.2573884,22.2074333 C82.5198721,22.2074333 82.5198721,25.075552 82.5198721,25.403337 C82.5198721,27.9436707 83.0934959,31.6312519 84.2407434,36.3841343 C84.2407434,36.3841343 84.2407434,36.302188 84.3226896,36.302188 L84.3226896,36.4660805 C85.7157758,33.8438006 87.3547008,31.0576281 87.4366471,30.8937356 L88.8297333,31.7131981 Z M108.906564,48.3482866 C100.629993,48.3482866 100.056369,38.6786292 100.875832,38.596683 C101.695294,38.596683 102.105026,46.7093616 108.906564,46.7093616 C114.642802,46.7093616 120.1332,43.5134579 124.394405,37.6952743 C128.327825,32.3687681 130.704266,25.4852833 130.704266,19.3393146 C130.704266,14.9142172 129.475072,11.226636 127.180578,8.60435608 C124.640244,5.65429114 120.706824,4.17925867 115.708103,4.17925867 C112.348307,4.17925867 109.562134,4.75288241 107.185693,5.98207613 C105.300929,6.96543111 103.662004,8.44046359 102.432811,10.2432811 C100.466101,13.2752922 100.220262,16.3073034 99.4007993,16.2253572 C98.5813368,16.2253572 98.8271756,12.7016685 101.121671,9.34187232 C102.432811,7.37516236 104.153682,5.73623739 106.284284,4.67093616 C108.824618,3.27784994 112.020522,2.5403337 115.708103,2.5403337 C118.494275,2.5403337 121.034609,2.95006494 123.247158,3.85147368 C125.295814,4.67093616 127.016685,5.98207613 128.491718,7.53905485 C131.032051,10.4891198 132.343191,14.5864322 132.343191,19.3393146 C132.343191,25.8130682 129.884804,33.0243381 125.705545,38.6786292 C123.574943,41.6286942 121.034609,43.9231891 118.330383,45.6440604 C115.298372,47.4468778 112.184414,48.3482866 108.906564,48.3482866 Z M106.202338,38.0230593 L105.05509,18.1101209 C104.973144,17.0448197 104.973144,16.7989809 104.973144,16.3892497 C104.891198,15.9795184 106.284284,15.9795184 106.612069,16.2253572 C106.857908,16.5531422 106.857908,21.3879708 107.0218,23.764412 L107.841263,38.0230593 C107.923209,39.580038 108.250994,44.0870816 107.431532,44.0870816 C106.612069,44.1690279 106.284284,39.580038 106.202338,38.0230593 Z M141.930902,36.0563493 C139.062784,36.0563493 137.505805,32.5326606 137.505805,29.1728644 C137.505805,27.8617245 137.751644,26.6325307 138.243321,25.731122 C138.816945,24.5838745 139.8003,23.9283045 140.947547,23.9283045 C142.42258,23.9283045 143.569827,25.403337 143.569827,27.4519932 C143.569827,28.5992407 143.160096,29.7464882 142.42258,30.5659507 C141.930902,31.2215206 141.029494,31.8770906 139.636407,32.0409831 C140.128085,33.4340694 140.865601,34.4174243 141.930902,34.4174243 C143.979558,34.4174243 145.864322,31.7951444 146.356,30.7298432 C146.356,30.7298432 147.749086,31.6312519 147.66714,31.8770906 C147.01157,32.9423919 144.880967,36.0563493 141.930902,36.0563493 Z M140.947547,25.5672295 C140.701709,25.5672295 140.128085,25.5672295 139.718354,26.4686382 C139.308622,27.2061545 139.14473,28.1075632 139.14473,29.1728644 C139.14473,29.5825957 139.14473,30.0742732 139.226676,30.4840044 C140.046139,30.4020582 140.701709,30.0742732 141.193386,29.5006494 C141.685063,29.0089719 141.930902,28.1895095 141.930902,27.4519932 C141.930902,26.5505845 141.521171,25.5672295 140.947547,25.5672295 Z M153.56727,31.7131981 C153.56727,31.7951444 151.026936,36.0563493 149.551903,38.924468 C149.961635,41.3828554 149.306065,42.7759417 148.814387,43.4315117 C148.32271,44.0051354 147.749086,44.3329204 147.093516,44.3329204 C146.765731,44.3329204 146.437946,44.1690279 146.274053,43.9231891 C146.028215,43.4315117 146.028215,42.8578879 146.929623,40.7272855 L147.912978,38.6786292 L147.749086,38.268898 C146.437946,32.8604456 145.70043,28.5992407 145.618483,25.6491758 L145.618483,25.2394445 C145.618483,23.1907883 146.110161,20.4865621 148.076871,20.4865621 C150.535258,20.4865621 150.699151,25.1574983 149.63385,25.1574983 C149.060226,25.1574983 149.306065,22.2074333 147.994925,22.2074333 C147.257408,22.2074333 147.257408,25.075552 147.257408,25.403337 C147.257408,27.9436707 147.831032,31.6312519 148.97828,36.3841343 C148.97828,36.3841343 148.97828,36.302188 149.060226,36.302188 L149.060226,36.4660805 C150.453312,33.8438006 152.092237,31.0576281 152.174183,30.8937356 L153.56727,31.7131981 Z M153.075592,21.4699171 C153.075592,21.4699171 151.60056,21.7977021 151.272775,21.1421321 C150.863043,20.4865621 151.026936,17.9462284 151.026936,17.9462284 C151.436667,17.5364972 152.829753,17.6184434 153.157538,17.9462284 C153.321431,18.1920671 153.075592,21.4699171 153.075592,21.4699171 Z M155.370087,37.0397043 C153.731162,37.0397043 152.665861,34.9910481 152.010291,30.5659507 C151.518613,27.6158857 151.354721,24.747767 151.436667,24.6658208 C151.682506,24.3380358 152.747807,24.3380358 153.075592,24.5838745 C153.075592,24.6658208 153.157538,27.5339395 153.56727,30.3201119 C154.304786,35.3188331 155.370087,35.4007793 155.370087,35.4007793 C156.271496,35.4007793 157.500689,32.9423919 158.074313,31.1395744 C158.074313,31.1395744 158.647937,31.3034669 159.057668,31.5493056 C159.713238,31.7951444 159.057668,33.1882306 158.565991,34.1715856 C157.664582,36.0563493 156.517334,37.0397043 155.370087,37.0397043 Z M160.942432,61.9513638 C159.959077,61.9513638 159.057668,61.6235788 158.320152,60.9680088 C156.517334,59.4110301 156.189549,56.3790189 157.336797,52.6094915 C158.647937,48.3482866 162.417464,41.7925867 165.367529,37.0397043 C165.285583,36.7938655 165.203637,36.5480268 165.203637,36.302188 C164.466121,33.5979618 163.728604,31.5493056 163.154981,30.4020582 C163.154981,30.5659507 163.073034,30.8117894 163.073034,31.0576281 C162.581357,32.9423919 162.007733,35.5646718 159.959077,35.5646718 C159.467399,35.5646718 158.729883,35.4007793 158.320152,34.1715856 C158.074313,33.5979618 157.992367,32.8604456 157.992367,31.8770906 C157.992367,28.6811869 159.303507,23.8463583 162.007733,23.8463583 C162.499411,23.8463583 162.991088,24.092197 163.318873,24.419982 C164.220282,25.4852833 164.220282,27.697832 164.220282,28.6811869 L164.957798,30.3201119 C165.449476,31.6312519 166.023099,33.3521231 166.514777,35.1549406 C167.989809,32.8604456 169.05511,31.3034669 169.137057,31.0576281 L170.530143,31.9590369 L167.088401,37.285543 C167.825917,40.3175542 168.727325,44.4968129 168.727325,48.2663403 C168.727325,56.0512339 165.695314,60.2304926 162.909142,61.4596863 C162.253572,61.7874713 161.516056,61.9513638 160.942432,61.9513638 Z M165.941153,39.252253 C163.154981,43.8412429 160.041023,49.4135878 158.893776,53.101169 C157.992367,56.1331802 158.156259,58.5915676 159.385453,59.7388151 C160.122969,60.3943851 161.188271,60.4763313 162.253572,59.9846538 C164.466121,59.0012989 167.088401,55.3137177 167.088401,48.2663403 C167.088401,45.2343291 166.514777,41.9564792 165.941153,39.252253 Z M162.007733,25.4852833 C161.434109,25.4852833 160.778539,26.3047457 160.368808,27.697832 C159.877131,28.9270257 159.631292,30.4020582 159.631292,31.7131981 C159.631292,33.0243381 159.877131,33.7618543 159.959077,33.9257468 C160.696593,33.8438006 161.188271,31.8770906 161.434109,30.6478969 C161.598002,30.0742732 161.679948,29.5006494 161.843841,29.0909182 C162.007733,28.5992407 162.253572,28.2714557 162.581357,28.025617 C162.581357,27.042262 162.417464,25.8950145 162.089679,25.5672295 C162.089679,25.4852833 162.007733,25.4852833 162.007733,25.4852833 Z M177.495574,36.957758 C176.512219,36.957758 175.774703,36.1382955 175.364972,34.6632631 C175.119133,33.5979618 174.95524,32.2048756 174.791348,30.8117894 C174.627455,29.5006494 174.463563,28.1895095 174.217724,27.2061545 C174.053832,26.4686382 173.807993,26.1408532 173.6441,26.1408532 C173.398262,26.1408532 173.152423,26.6325307 172.906584,27.4519932 C172.660745,28.5172944 172.578799,29.9923269 172.414907,31.3034669 L172.169068,34.0896393 C172.005175,34.5813168 171.759337,35.8924568 170.694035,35.8924568 C170.36625,35.8924568 170.038465,35.8105106 169.792627,35.5646718 C169.546788,35.2368868 169.137057,34.6632631 169.05511,32.6965531 C168.973164,31.7131981 168.973164,30.8117894 168.973164,30.8117894 C169.05511,30.4020582 170.612089,30.4020582 170.612089,30.8117894 C170.612089,31.3034669 170.612089,32.1229294 170.694035,32.7784994 C170.694035,32.2048756 170.775982,31.6312519 170.775982,31.2215206 C170.939874,29.8284344 171.02182,28.2714557 171.349605,27.042262 C171.759337,25.403337 172.496853,24.5019283 173.6441,24.5019283 C174.627455,24.5019283 175.364972,25.2394445 175.856649,26.7964232 C176.102488,27.8617245 176.26638,29.2548107 176.430273,30.6478969 C176.594165,31.9590369 176.676112,33.2701769 176.92195,34.2535318 C177.167789,34.9910481 177.413628,35.3188331 177.495574,35.3188331 C177.495574,35.3188331 178.151144,35.2368868 179.380338,33.2701769 C180.117854,32.1229294 180.609531,31.0576281 180.609531,30.9756819 L182.084564,31.7131981 C182.084564,31.7951444 181.51094,32.9423919 180.773424,34.1715856 C179.54423,36.0563493 178.478929,36.957758 177.495574,36.957758 Z M187.820801,31.7131981 C187.820801,31.7951444 185.280468,36.0563493 183.805435,38.924468 C184.215166,41.3828554 183.559596,42.7759417 183.067919,43.4315117 C182.576241,44.0051354 182.002618,44.3329204 181.347048,44.3329204 C181.019263,44.3329204 180.691478,44.1690279 180.527585,43.9231891 C180.281746,43.4315117 180.281746,42.8578879 181.183155,40.7272855 L182.16651,38.6786292 L182.002618,38.268898 C180.691478,32.8604456 179.953962,28.5992407 179.872015,25.6491758 L179.872015,25.2394445 C179.872015,23.1907883 180.363693,20.4865621 182.330403,20.4865621 C184.78879,20.4865621 184.952683,25.1574983 183.887381,25.1574983 C183.313758,25.1574983 183.559596,22.2074333 182.248456,22.2074333 C181.51094,22.2074333 181.51094,25.075552 181.51094,25.403337 C181.51094,27.9436707 182.084564,31.6312519 183.231811,36.3841343 C183.231811,36.3841343 183.231811,36.302188 183.313758,36.302188 L183.313758,36.4660805 C184.706844,33.8438006 186.345769,31.0576281 186.427715,30.8937356 L187.820801,31.7131981 Z" id="Shape"></path>
            </g>
        </g>
    </g>
</svg>